<?xml version="1.0" standalone="no"?><!DOCTYPE svg PUBLIC "-//W3C//DTD SVG 1.1//EN" "http://www.w3.org/Graphics/SVG/1.1/DTD/svg11.dtd"><svg t="1743754580867" class="icon" viewBox="0 0 1024 1024" version="1.1" xmlns="http://www.w3.org/2000/svg" p-id="2505" xmlns:xlink="http://www.w3.org/1999/xlink" width="200" height="200"><path d="M2.167578 515.341683S19.327571 308.51861 128.248368 204.474863C236.988534 100.431117 341.032281 31.429882 561.041454 17.882519s357.289116 209.171282 378.423002 248.729582c21.314518 39.5583 84.535544 157.510672 84.535544 248.729582s0.722526 282.868936-129.512789 368.127006c-130.054683 85.077439-255.412948 134.751102-345.367437 130.054684-89.954489-4.696419-317.008291-23.662727-418.703828-165.63909-101.695537-141.795731-128.248368-187.31487-128.248368-332.5426z" fill="#FDD528" p-id="2506"></path><path d="M531.056624 125.358264c29.442935-8.309049 82.367966-15.353678 138.724995 15.714941 5.599577 3.070736 11.741048-2.890104 8.670313-8.489681-19.327571-35.584406-69.723761-100.250485-153.356148-18.06315-4.696419 4.696419-0.361263 12.644205 5.96084 10.83789z" fill="#FFEC4C" p-id="2507"></path><path d="M326.220497 919.414359c-53.286294-54.911977-124.274475-124.274475-117.049215-361.985536 7.044629-237.71106 63.943553-321.885341 104.766273-384.925736 22.217675-34.319986 98.986065-105.308167 193.456342-149.924149-183.882872 20.953255-279.798201 86.703122-379.32616 181.895925C19.327571 308.51861 2.167578 515.341683 2.167578 515.341683c0 145.22773 26.733463 190.746869 128.429 332.5426 101.695537 141.976363 328.749339 160.942671 418.703828 165.63909 0 0-169.793614-39.016405-223.079909-94.109014z" fill="#FAB920" p-id="2508"></path><path d="M304.183454 344.825542a77.490916 60.150291 90 1 0 120.300582 0 77.490916 60.150291 90 1 0-120.300582 0Z" fill="#88281F" p-id="2509"></path><path d="M696.876345 344.825542a77.490916 60.150291 90 1 0 120.300582 0 77.490916 60.150291 90 1 0-120.300582 0Z" fill="#88281F" p-id="2510"></path><path d="M563.570295 864.502381s283.952725 5.238314 333.987652-260.651261c3.973893-20.772623-10.115364-40.642089-31.068619-42.809666-91.941436-9.934733-346.451226-29.98483-635.642265 9.573469-20.230729 2.709473-33.778091 22.037044-30.165461 42.087141 13.727994 73.878285 76.587758 234.279062 362.888693 251.800317z" fill="#88281F" p-id="2511"></path><path d="M594.458282 844.994179S420.871406 857.999647 348.438173 785.205151c-0.180632-0.180632 8.309049-6.322103 8.850943-6.502734 9.212207-5.780208 19.508203-9.754101 29.804199-12.824837 18.06315-5.418945 37.029458-7.947786 55.815134-9.031575 11.018522-0.541895 22.217675-0.722526 33.416829-0.361263 11.379785 0.361263 23.120833 1.625684 33.958723 4.87705 11.018522 3.431999 21.495149 8.489681 31.429882 13.908626 14.631152 8.128418 28.359146 18.424413 38.47451 31.971776 8.128418 11.018522 13.366731 24.02399 14.269889 37.751985z" fill="#FF594B" p-id="2512"></path><path d="M299.487035 578.382078s248.368319-15.353678 526.360204-9.392838c0 0-14.269889 55.634503-270.947257 55.634503-57.802081-0.180632-244.755689 22.398307-255.412947-46.241665z" fill="#FCFFFF" p-id="2513"></path></svg>